<?xml version="1.0" standalone="no"?>
<!DOCTYPE svg PUBLIC "-//W3C//DTD SVG 20010904//EN"
 "http://www.w3.org/TR/2001/REC-SVG-20010904/DTD/svg10.dtd">
<svg version="1.0" xmlns="http://www.w3.org/2000/svg"
 width="300.000000pt" height="300.000000pt" viewBox="0 0 300.000000 300.000000"
 preserveAspectRatio="xMidYMid meet">
<metadata>
Created by potrace 1.14, written by Peter Selinger 2001-2017
</metadata>
<g transform="translate(0.000000,300.000000) scale(0.100000,-0.100000)"
fill="#000000" stroke="none">
<path d="M548 2963 c-25 -28 -29 -76 -37 -434 -6 -212 -13 -345 -20 -366 -22
-58 -113 -69 -159 -20 -49 52 -63 126 -72 367 -8 247 -19 300 -61 300 -27 0
-85 -35 -93 -56 -16 -41 -16 -134 -2 -299 23 -275 54 -393 109 -430 13 -8 56
-19 95 -24 40 -5 87 -18 104 -28 42 -24 92 -105 92 -147 0 -63 -74 -127 -217
-186 -59 -24 -84 -41 -98 -63 -50 -84 -71 -334 -73 -897 -1 -343 1 -410 14
-435 20 -39 53 -44 75 -11 22 33 41 209 55 506 19 433 50 672 99 755 19 33 64
60 87 51 41 -16 52 -159 64 -822 9 -520 18 -654 44 -689 13 -19 90 -38 116
-30 10 3 22 13 27 23 4 9 8 355 8 767 0 799 -1 789 47 819 26 16 86 -17 103
-57 49 -119 114 -811 115 -1227 0 -142 7 -154 87 -158 55 -3 63 -1 76 20 28
45 62 348 61 543 0 342 -51 693 -117 825 -44 86 -64 99 -184 115 -114 15 -136
24 -163 68 -37 61 -19 178 32 210 12 8 61 25 108 36 185 46 263 143 276 344 6
95 16 120 53 138 63 32 973 19 1054 -14 73 -31 86 -102 94 -513 7 -366 -4
-486 -47 -548 -53 -76 -197 -204 -330 -293 -169 -114 -230 -199 -230 -322 0
-138 60 -273 164 -367 119 -108 451 -305 594 -352 91 -30 254 -42 302 -22 57
24 47 80 -17 101 -21 6 -107 47 -191 90 -85 43 -181 88 -214 101 -121 44 -248
148 -333 272 -38 55 -40 63 -40 130 1 138 64 220 261 341 118 72 232 161 268
208 59 77 59 85 60 643 1 416 4 514 15 527 17 21 66 34 172 48 101 12 119 21
119 58 0 21 -6 31 -22 36 -39 13 -709 17 -1218 7 -363 -8 -491 -7 -509 1 -14
7 -29 26 -35 42 -17 46 -46 85 -77 101 -39 20 -96 18 -108 -4 -5 -9 -14 -100
-20 -200 -20 -326 -53 -422 -143 -422 -57 0 -59 11 -62 412 -2 285 -5 372 -17
403 -14 40 -15 40 -70 43 -43 2 -59 -1 -71 -15z"/>
<path d="M1947 2216 c-51 -19 -72 -39 -86 -85 -9 -32 -20 -44 -59 -63 -39 -19
-62 -23 -132 -22 -107 1 -155 19 -165 63 -9 42 -30 51 -118 51 -57 0 -78 -4
-88 -17 -19 -22 -23 -152 -10 -348 13 -211 35 -270 114 -312 65 -33 302 -35
431 -2 137 34 256 269 275 541 8 117 1 156 -34 185 -30 26 -71 29 -128 9z
m-117 -331 c24 -22 27 -92 6 -134 -22 -41 -98 -107 -141 -121 -47 -16 -120 -8
-145 15 -17 15 -20 31 -20 102 0 46 4 92 10 102 27 52 243 78 290 36z"/>
</g>
</svg>
